<svg width="222" height="230" xmlns="http://www.w3.org/2000/svg" xmlns:xlink="http://www.w3.org/1999/xlink" overflow="hidden"><defs><clipPath id="clip0"><rect x="613" y="118" width="222" height="230"/></clipPath><clipPath id="clip1"><rect x="613" y="119" width="221" height="229"/></clipPath><clipPath id="clip2"><rect x="613" y="119" width="221" height="229"/></clipPath></defs><g clip-path="url(#clip0)" transform="translate(-613 -118)"><g clip-path="url(#clip1)"><g clip-path="url(#clip2)"><g><path d="M374.218 655.086C361.291 655.086 356.392 649.098 356.392 639.573 356.392 630.864 361.835 622.835 373.946 622.835 381.839 622.835 387.962 625.148 387.962 625.148L387.962 648.01 394.766 648.01 394.766 654.95 374.218 654.95ZM367.822 610.588C370.272 610.588 372.177 612.493 372.177 614.943 372.177 617.392 370.272 619.297 367.822 619.297 365.237 619.297 363.468 617.256 363.468 614.943 363.468 612.629 365.509 610.588 367.822 610.588ZM379.525 631.136C379.525 631.136 376.94 629.911 373.13 629.911 368.095 629.911 365.237 633.721 365.237 638.892 365.237 645.016 368.231 648.282 375.171 648.282L379.389 648.282 379.389 631.136ZM378.573 610.588C380.886 610.588 382.927 612.493 382.927 614.943 382.927 617.256 381.022 619.297 378.573 619.297 376.123 619.297 374.218 617.256 374.218 614.943 374.218 612.629 376.123 610.588 378.573 610.588ZM393.814 648.146 401.842 648.146 401.842 655.086 393.814 655.086ZM395.583 648.146 403.611 648.146 403.611 655.086 395.583 655.086ZM402.659 648.146 410.687 648.146 410.687 655.086 402.659 655.086ZM409.735 648.146 417.764 648.146 417.764 655.086 409.735 655.086ZM416.675 648.146 424.704 648.146 424.704 655.086 416.675 655.086ZM423.751 648.146 431.78 648.146 431.78 655.086 423.751 655.086ZM430.827 648.146 438.856 648.146 438.856 655.086 430.827 655.086ZM437.903 655.086C436.542 655.086 433.957 653.725 433.957 651.684 433.957 649.643 436.679 648.282 437.903 648.282L443.074 648.282C445.388 648.282 446.748 648.69 446.748 648.69 444.299 646.921 443.074 643.927 443.074 639.165 443.074 630.728 448.926 622.971 460.356 622.971 470.698 622.971 475.461 628.959 475.461 638.348L475.461 655.222 437.903 655.222ZM466.888 639.301C466.888 632.633 464.167 629.775 459.812 629.775 454.777 629.775 451.919 633.585 451.919 638.756 451.919 645.016 455.049 648.146 461.853 648.146L466.888 648.146ZM482.673 648.146 502.405 648.146C501.997 638.348 497.234 632.225 486.62 629.503L488.797 622.155C502.541 625.693 510.161 633.313 510.978 648.146L514.652 648.146 514.652 655.086 482.673 655.086ZM513.699 655.086C512.339 655.086 509.753 653.725 509.753 651.684 509.753 649.643 512.475 648.282 513.699 648.282L536.969 648.282C537.105 646.649 537.241 644.88 537.241 643.247 537.241 634.81 533.839 630.456 524.314 630.456 521.728 630.456 519.279 630.728 516.829 631.136L516.829 624.332C519.415 623.924 522.272 623.652 525.13 623.652 540.099 623.652 546.086 630.183 546.086 642.975 546.086 646.241 545.814 650.459 544.998 655.358L513.699 655.358ZM527.035 610.588C529.485 610.588 531.662 612.629 531.662 615.215 531.662 617.8 529.485 619.841 527.035 619.841 524.45 619.841 522.409 617.664 522.409 615.215 522.409 612.629 524.586 610.588 527.035 610.588ZM587.591 655.086C577.793 655.086 575.071 658.352 575.071 662.434 575.071 666.108 578.337 669.51 586.094 669.51L585.549 676.45C572.486 676.45 566.362 670.735 566.362 662.979 566.362 654.542 572.758 648.146 587.999 648.146L592.489 648.146C592.625 646.513 592.762 644.744 592.762 643.111 592.762 634.674 589.36 630.32 579.698 630.32 576.976 630.32 574.527 630.456 572.078 630.864L572.078 624.06C574.663 623.788 577.793 623.516 580.651 623.516 595.619 623.516 601.607 630.047 601.607 642.839 601.607 644.472 601.607 646.241 601.335 648.282L605.553 648.282 605.553 655.222 587.591 655.222ZM591.945 659.577C594.531 659.577 596.436 661.482 596.436 664.067 596.436 666.653 594.395 668.558 591.945 668.558 589.36 668.558 587.455 666.517 587.455 664.067 587.455 661.482 589.36 659.577 591.945 659.577ZM604.464 655.086C603.104 655.086 600.518 653.725 600.518 651.684 600.518 649.643 603.24 648.282 604.464 648.282L609.635 648.282C611.949 648.282 613.31 648.69 613.31 648.69 610.86 646.921 609.635 643.927 609.635 639.165 609.635 630.728 615.487 622.971 626.918 622.971 637.26 622.971 642.022 628.959 642.022 638.348L642.022 655.222 604.464 655.222ZM633.313 639.301C633.313 632.633 630.592 629.775 626.237 629.775 621.202 629.775 618.344 633.585 618.344 638.756 618.344 645.016 621.474 648.146 628.278 648.146L633.313 648.146ZM651.548 608.139 660.393 608.139 660.393 648.146 667.197 648.146 667.197 655.086 651.548 655.086ZM666.108 655.086C664.748 655.086 662.162 653.725 662.162 651.684 662.162 649.643 664.884 648.282 666.108 648.282L674.001 648.282 674.001 623.924 682.846 623.924 682.846 655.222 666.108 655.222ZM678.355 610.588C680.805 610.588 682.982 612.629 682.982 615.215 682.982 617.8 680.805 619.841 678.355 619.841 675.77 619.841 673.729 617.664 673.729 615.215 673.865 612.629 675.906 610.588 678.355 610.588ZM683.935 671.415 684.615 664.475C686.248 664.884 687.881 665.292 690.058 665.292 694.549 665.292 697.271 663.115 697.271 655.902L697.271 623.924 706.116 623.924 706.116 648.282 712.92 648.282 712.92 655.222 706.116 655.222 706.116 655.494C706.116 664.067 703.122 672.096 689.65 672.096 687.337 672.096 685.432 671.824 683.935 671.415ZM710.198 655.086C708.837 655.086 706.252 653.725 706.252 651.684 706.252 649.643 708.973 648.282 710.198 648.282L718.091 648.282 718.091 623.924 726.936 623.924 726.936 655.222 710.198 655.222ZM722.037 659.577C724.622 659.577 726.528 661.482 726.528 664.067 726.528 666.653 724.486 668.558 722.037 668.558 719.451 668.558 717.546 666.517 717.546 664.067 717.546 661.482 719.451 659.577 722.037 659.577Z" fill="#757A81" transform="matrix(1.00195 0 0 1 -172.772 -446.921)"/><path d="M392.453 733.195 399.257 733.195 399.257 740.136 392.045 740.136C390.684 750.341 384.696 755.513 373.538 755.513 362.924 755.513 355.984 749.933 355.984 736.597 355.984 732.787 356.528 728.569 357.48 724.622L366.598 722.99C365.373 727.208 364.693 731.699 364.693 735.781 364.693 745.987 369.455 748.572 374.218 748.572 380.07 748.572 383.608 745.443 383.608 735.917L383.608 708.837 392.453 708.837ZM373.266 708.973C375.715 708.973 377.892 711.015 377.892 713.6 377.892 716.186 375.715 718.227 373.266 718.227 370.68 718.227 368.639 716.049 368.639 713.6 368.775 711.015 370.816 708.973 373.266 708.973ZM409.191 734.964C407.966 738.094 405.38 740.136 399.665 740.136L398.304 740.136C396.943 740.136 394.358 738.775 394.358 736.734 394.358 734.692 397.079 733.332 398.304 733.332L398.712 733.332C402.659 733.332 405.244 731.154 405.244 724.214 405.244 715.777 411.096 708.021 422.526 708.021 432.868 708.021 437.631 714.008 437.631 723.398L437.631 733.332 442.938 733.332 442.938 740.272 423.887 740.272C414.498 740.136 411.504 738.094 409.191 734.964ZM429.194 724.35C429.194 717.682 426.473 714.825 422.118 714.825 417.083 714.825 414.225 718.635 414.225 723.806 414.225 730.066 417.355 733.195 424.159 733.195L429.194 733.195ZM441.986 740.136C440.625 740.136 438.039 738.775 438.039 736.734 438.039 734.692 440.761 733.332 441.986 733.332L465.255 733.332C465.391 731.699 465.527 729.93 465.527 728.297 465.527 719.86 462.125 715.505 452.6 715.505 450.014 715.505 447.565 715.777 445.116 716.186L445.116 709.382C447.701 708.973 450.559 708.701 453.416 708.701 468.385 708.701 474.373 715.233 474.373 728.024 474.373 731.29 474.1 735.509 473.284 740.408L441.986 740.408ZM473.964 756.465 474.645 749.525C476.278 749.933 477.911 750.341 480.088 750.341 484.579 750.341 487.3 748.164 487.3 740.952L487.3 708.973 496.145 708.973 496.145 733.332 502.949 733.332 502.949 740.272 496.145 740.272 496.145 740.544C496.145 749.117 493.151 757.145 479.68 757.145 477.502 757.145 475.461 756.873 473.964 756.465ZM500.228 740.136C498.867 740.136 496.281 738.775 496.281 736.734 496.281 734.692 499.003 733.332 500.228 733.332L508.12 733.332 508.12 693.324 516.965 693.324 516.965 740.272 500.228 740.272ZM527.58 693.188 536.425 693.188 536.425 740.136 527.58 740.136ZM598.749 740.136 584.597 740.136C566.498 740.136 560.103 732.651 560.103 720.404 560.103 716.866 560.783 712.648 561.872 709.926L571.397 708.429C569.9 711.559 569.084 715.913 569.084 719.451 569.084 728.841 573.438 733.195 584.189 733.195L586.366 733.195C584.461 731.426 583.372 728.16 583.372 724.486 583.372 714.961 590.176 707.885 600.246 707.885 609.771 707.885 615.759 712.784 615.759 723.398 615.759 733.195 608.683 740.136 598.749 740.136ZM599.566 714.961C595.755 714.961 592.081 717.682 592.081 723.942 592.081 730.202 594.667 733.332 599.429 733.332 603.648 733.332 606.778 730.202 606.778 724.078 606.914 718.091 604.6 714.961 599.566 714.961ZM599.702 695.638C602.151 695.638 604.328 697.679 604.328 700.264 604.328 702.85 602.151 704.891 599.702 704.891 597.116 704.891 595.075 702.714 595.075 700.264 595.075 697.679 597.252 695.638 599.702 695.638ZM622.835 756.057 623.379 748.845C623.379 748.845 628.55 749.933 633.721 749.933 640.661 749.933 645.288 747.348 645.288 741.088L645.288 740.136 639.981 740.136C627.054 740.136 622.155 734.148 622.155 724.622 622.155 715.913 627.598 707.885 639.709 707.885 647.602 707.885 653.725 710.198 653.725 710.198L653.725 733.059 660.529 733.059 660.529 739.999 653.725 739.999 653.725 740.136C653.725 749.389 647.738 756.737 632.905 756.737 628.006 757.009 622.835 756.057 622.835 756.057ZM645.288 716.049C645.288 716.049 642.703 714.825 638.892 714.825 633.858 714.825 631 718.635 631 723.806 631 729.93 633.994 733.195 640.934 733.195L645.152 733.195 645.152 716.049ZM655.63 736.734C655.63 734.692 658.352 733.332 659.577 733.332L667.469 733.332 667.469 708.973 676.314 708.973 676.314 733.332 683.118 733.332 683.118 740.272 659.577 740.272C658.352 740.136 655.63 738.775 655.63 736.734ZM666.517 745.034C668.83 745.034 670.871 746.94 670.871 749.389 670.871 751.702 668.966 753.743 666.517 753.743 664.067 753.743 662.162 751.702 662.162 749.389 662.162 746.94 664.067 745.034 666.517 745.034ZM677.131 745.034C679.444 745.034 681.485 746.94 681.485 749.389 681.485 751.702 679.58 753.743 677.131 753.743 674.681 753.743 672.776 751.702 672.776 749.389 672.776 746.94 674.817 745.034 677.131 745.034ZM682.166 740.136C680.805 740.136 678.219 738.775 678.219 736.734 678.219 734.692 680.941 733.332 682.166 733.332L690.058 733.332 690.058 708.973 698.903 708.973 698.903 710.606C698.903 713.6 698.767 717.274 698.087 720.404L698.223 720.404C701.217 712.375 708.021 708.021 715.097 708.021 724.35 708.021 729.113 713.736 729.113 723.126 729.113 732.651 723.534 740.136 708.701 740.136ZM709.518 733.195C717.818 733.195 720.132 728.977 720.132 723.67 720.132 718.227 717.955 714.961 713.328 714.961 706.116 714.961 700.264 723.806 698.903 733.195ZM712.92 695.638C715.369 695.638 717.546 697.679 717.546 700.264 717.546 702.85 715.369 704.891 712.92 704.891 710.334 704.891 708.293 702.714 708.293 700.264 708.293 697.679 710.47 695.638 712.92 695.638Z" fill="#757A81" transform="matrix(1.00195 0 0 1 -172.772 -446.921)"/><path d="M942.758 689.378C941.669 688.698 939.628 687.745 936.906 686.928 932.96 685.704 927.517 684.751 920.985 685.704 918.808 686.112 916.494 686.656 914.045 687.473 913.773 687.609 913.637 687.609 913.365 687.745 912.14 688.153 910.915 688.698 909.69 689.378 908.602 689.922 907.649 690.467 906.561 691.147 904.247 692.508 901.934 694.141 899.62 695.91 897.035 680.397 898.26 665.836 898.94 658.76 898.94 658.76 898.94 658.76 899.076 658.76 904.519 662.298 903.022 671.96 901.934 674.681 901.934 674.681 901.934 674.817 902.07 674.681 908.874 666.517 905.608 657.671 904.111 655.358 904.111 655.358 904.111 655.222 904.247 655.358 905.2 656.175 906.016 656.991 906.697 657.944 908.874 660.665 909.554 663.659 909.826 666.244 909.963 667.605 909.963 668.83 909.826 669.919 909.826 670.191 909.826 670.463 909.69 670.735 909.69 670.735 909.69 670.735 909.826 670.735 909.826 670.735 909.826 670.735 909.826 670.735 911.732 667.061 912.548 661.618 909.826 656.175 909.01 654.678 908.057 653.317 906.697 651.956 906.288 651.548 905.88 651.14 905.472 650.731 905.472 650.731 905.472 650.595 905.472 650.595 905.88 650.731 906.288 650.867 906.697 651.004 907.921 651.412 908.874 651.956 909.826 652.636 911.868 654.133 913.365 656.311 914.181 658.488 914.861 660.257 915.134 662.162 915.134 663.795 915.134 663.795 915.27 663.795 915.27 663.795 916.494 659.032 915.814 655.494 914.181 652.909 912.956 651.004 911.459 649.643 909.826 648.69 908.738 648.01 907.649 647.602 906.697 647.329 906.152 647.193 905.608 647.057 905.2 647.057 905.2 647.057 905.2 646.921 905.2 646.921 905.744 646.921 906.152 646.785 906.697 646.785 907.921 646.785 908.874 646.921 909.826 647.057 911.596 647.329 913.092 648.01 914.181 648.826 915.95 650.051 916.766 651.412 917.039 651.956 917.039 651.956 917.175 651.956 917.175 651.956 916.903 649.507 915.814 647.465 914.181 646.105 912.956 645.016 911.459 644.2 909.826 643.791 908.738 643.519 907.785 643.383 906.697 643.383 905.336 643.383 903.975 643.655 902.75 644.063 902.75 644.063 902.614 644.063 902.75 643.927 903.703 642.431 905.2 641.614 906.697 641.07 907.785 640.798 908.874 640.661 909.826 640.661 910.779 640.661 911.732 640.934 912.412 641.206 912.412 641.206 912.548 641.206 912.412 641.07 911.596 640.117 910.779 639.437 909.826 638.892 908.874 638.348 907.785 637.94 906.697 637.94 903.975 637.668 901.117 638.756 899.212 641.614 899.212 641.614 899.076 641.614 899.076 641.614 898.668 640.934 898.396 640.253 897.988 639.437 897.171 637.668 896.627 635.763 896.218 633.721 896.218 633.721 896.082 633.721 896.082 633.721 895.81 635.627 895.13 637.668 894.313 639.437 894.041 640.117 893.633 640.934 893.225 641.478 893.225 641.478 893.225 641.478 893.089 641.478 889.823 636.443 883.563 636.579 879.889 640.934 879.889 640.934 879.889 641.07 879.889 641.07 882.338 639.845 887.101 640.253 889.551 643.655 889.551 643.655 889.551 643.791 889.551 643.791 885.876 642.294 880.161 643.247 877.167 646.921 876.079 648.146 875.398 649.779 875.126 651.82 875.126 651.82 875.262 651.956 875.262 651.82 875.534 651.412 876.079 650.459 877.167 649.507 878.936 648.01 882.066 646.377 887.101 646.785 887.101 646.785 887.237 646.921 887.101 646.921 884.516 647.193 879.073 649.643 877.167 654.95 876.351 657.263 876.079 660.257 877.031 663.795 877.031 663.795 877.167 663.795 877.167 663.795 877.167 663.659 877.167 663.659 877.167 663.523 877.167 658.624 880.025 652.228 886.829 650.595 886.829 650.595 886.965 650.595 886.829 650.731 879.209 657.399 879.889 665.7 882.474 670.735 882.474 670.735 882.611 670.735 882.611 670.735 882.338 667.061 882.066 660.393 888.19 655.358 888.19 655.358 888.326 655.358 888.326 655.358 886.965 657.671 883.563 666.653 890.367 674.681 890.367 674.681 890.503 674.681 890.503 674.681 889.414 671.96 887.782 662.162 893.361 658.76 893.361 658.76 893.497 658.76 893.497 658.76 894.041 665.836 895.402 680.261 892.816 695.91 888.326 692.508 883.699 689.514 879.073 687.745 878.528 687.473 877.984 687.337 877.44 687.201 872.677 685.568 868.322 685.159 864.512 685.296 858.388 685.568 853.762 687.337 851.176 688.698 850.632 688.97 850.224 689.242 849.815 689.378 849.679 689.514 849.815 689.65 849.951 689.65 850.36 689.514 850.768 689.378 851.176 689.242 855.939 687.881 860.294 687.609 864.512 687.881 869.139 688.289 873.357 689.514 877.44 691.419 883.155 694.005 888.19 697.679 892.816 701.489 886.285 707.204 880.705 712.784 877.44 714.689 877.303 714.825 877.167 714.825 876.895 714.961 876.079 713.872 874.718 713.192 873.221 713.6 871.86 713.872 870.772 714.961 870.5 716.322 870.227 717.546 870.5 718.771 871.18 719.451 872.949 721.22 874.99 721.357 877.44 720.404 881.93 718.499 887.646 712.511 894.449 706.116 894.994 705.571 895.674 705.027 896.218 704.483 896.763 705.027 897.443 705.571 897.988 706.116 901.117 708.973 903.975 711.831 906.561 714.144 907.649 715.097 908.738 716.049 909.69 716.866 911.187 718.091 912.684 719.179 914.045 719.86 916.63 721.22 918.944 721.493 920.985 719.724 921.121 719.588 921.257 719.588 921.257 719.451 921.665 719.043 922.21 717.546 921.938 716.322 921.801 715.641 921.393 714.961 920.985 714.553 920.577 714.144 919.896 713.736 919.352 713.6 917.855 713.328 916.494 713.872 915.678 714.961 915.27 714.689 914.725 714.417 914.181 714.008 912.956 713.192 911.459 711.967 909.826 710.47 908.874 709.654 907.785 708.701 906.697 707.613 904.519 705.707 902.206 703.53 899.757 701.353 901.934 699.448 904.247 697.679 906.697 696.046 907.649 695.365 908.738 694.685 909.826 694.005 911.187 693.188 912.684 692.372 914.181 691.691 916.358 690.603 918.672 689.786 921.121 689.106 926.02 687.745 931.327 687.201 937.042 688.153 938.947 688.425 940.853 688.834 942.758 689.514 942.758 689.65 942.894 689.514 942.758 689.378" fill="#93A0A7" transform="matrix(1.00195 0 0 1 -172.772 -446.921)"/><path d="M889.725 777.215 904.572 777.215 904.572 792.062 889.725 792.062Z" fill="#3C3B39" transform="matrix(0.707795 -0.706421 0.707795 0.706421 -465.108 416.469)"/><path d="M810.208 715.21 822.457 715.21 822.457 727.459 810.208 727.459Z" fill="#3C3B39" transform="matrix(0.309652 -0.95085 0.9527 0.309051 -295.094 827.53)"/><path d="M845.208 611.962 855.414 611.962 855.414 622.169 845.208 622.169Z" fill="#3C3B39" transform="matrix(0.1565 -0.987678 0.989599 0.156197 -64.5851 913.633)"/><path d="M970.498 676.011 980.713 676.011 980.713 686.227 970.498 686.227Z" fill="#3C3B39" transform="matrix(0.707795 -0.706421 0.707795 0.706421 -368.812 441.501)"/><path d="M965.961 651.37 976.17 651.37 976.17 661.58 965.961 661.58Z" fill="#3C3B39" transform="matrix(0.454622 -0.890684 0.892417 0.453739 -227.467 776.425)"/><path d="M845.207 738.655 855.414 738.655 855.414 748.861 845.207 748.861Z" fill="#3C3B39" transform="matrix(0.9896 -0.156197 0.1565 0.987678 -278.73 -304.935)"/><path d="M937.32 611.953 947.527 611.953 947.527 622.159 937.32 622.159Z" fill="#3C3B39" transform="matrix(0.989615 -0.156099 0.156403 0.987694 -257.73 -292.216)"/><path d="M867.481 750.129 877.691 750.129 877.691 760.339 867.481 760.339Z" fill="#3C3B39" transform="matrix(0.892439 -0.453699 0.454582 0.890706 -420.847 31.1727)"/><path d="M892.177 597.69 902.393 597.69 902.393 607.906 892.177 607.906Z" fill="#3C3B39" transform="matrix(0.707795 -0.706421 0.707795 0.706421 -336.334 363.227)"/><path d="M882.149 609.388 890.592 609.388 890.592 617.831 882.149 617.831Z" fill="#3C3B39" transform="matrix(0.588325 -0.808625 0.810198 0.587182 -303.915 522.643)"/><path d="M903.392 743.93 911.835 743.93 911.835 752.373 903.392 752.373Z" fill="#3C3B39" transform="matrix(0.588325 -0.808625 0.810198 0.587182 -404.103 595.317)"/><path d="M831.55 645.37 839.988 645.37 839.988 653.808 831.55 653.808Z" fill="#3C3B39" transform="matrix(0.95273 -0.308961 0.309562 0.95088 -332.899 -156.858)"/><path d="M952.948 707.157 961.386 707.157 961.386 715.595 952.948 715.595Z" fill="#3C3B39" transform="matrix(0.95273 -0.308961 0.309562 0.95088 -346.083 -116.354)"/><path d="M825.5 687.281 833.943 687.281 833.943 695.724 825.5 695.724Z" fill="#3C3B39" transform="matrix(0.588325 -0.808625 0.810198 0.587182 -390.421 508.965)"/><path d="M987.783 705.307 1002.62 705.307 1002.62 720.145 987.783 720.145Z" fill="#3C3B39" transform="matrix(0.89248 -0.45362 0.454503 0.890747 -388.15 82.1374)"/><path d="M828.1 756.79 842.934 756.79 842.934 771.623 828.1 771.623Z" fill="#3C3B39" transform="matrix(0.989553 -0.156489 0.156794 0.987632 -282.289 -306.73)"/><path d="M949.899 589.264 964.733 589.264 964.733 604.098 949.899 604.098Z" fill="#3C3B39" transform="matrix(0.989553 -0.156489 0.156794 0.987632 -254.494 -289.82)"/><path d="M801.906 688.749 814.161 688.749 814.161 701.004 801.906 701.004Z" fill="#3C3B39" transform="matrix(0.588551 -0.80846 0.810033 0.587408 -402.221 492.592)"/><path d="M867.482 601.193 877.692 601.193 877.692 611.403 867.482 611.403Z" fill="#3C3B39" transform="matrix(0.454582 -0.890705 0.892438 0.453699 -236.559 661.134)"/><path d="M817.173 651.369 827.382 651.369 827.382 661.579 817.173 661.579Z" fill="#3C3B39" transform="matrix(0.892418 -0.45374 0.454623 0.890686 -381.488 -2.36015)"/><path d="M892.177 754.332 902.393 754.332 902.393 764.548 892.177 764.548Z" fill="#3C3B39" transform="matrix(0.707795 -0.706421 0.707795 0.706421 -447.227 409.071)"/><path d="M952.948 645.37 961.386 645.37 961.386 653.808 952.948 653.808Z" fill="#3C3B39" transform="matrix(0.309562 -0.950879 0.952729 0.308961 -129.176 911.973)"/><path d="M843.964 724.35 852.401 724.35 852.401 732.787 843.964 732.787Z" fill="#3C3B39" transform="matrix(1.00195 0 0 1 -172.772 -446.921)"/><path d="M790.801 641.326 805.64 641.326 805.64 656.165 790.801 656.165Z" fill="#3C3B39" transform="matrix(0.892276 -0.454018 0.454901 0.890543 -380.629 -13.7936)"/><path d="M790.801 705.309 805.639 705.309 805.639 720.147 790.801 720.147Z" fill="#3C3B39" transform="matrix(0.454701 -0.890644 0.892377 0.453819 -372.244 652.955)"/><path d="M849.54 594.215 861.789 594.215 861.789 606.464 849.54 606.464Z" fill="#3C3B39" transform="matrix(0.309954 -0.950752 0.952601 0.309352 -152.725 781.04)"/><path d="M931.2 754.542 943.449 754.542 943.449 766.791 931.2 766.791Z" fill="#3C3B39" transform="matrix(0.309954 -0.950752 0.952601 0.309352 -248.993 969.498)"/><path d="M970.596 715.255 982.846 715.255 982.846 727.505 970.596 727.505Z" fill="#3C3B39" transform="matrix(0.952739 -0.308932 0.309533 0.95089 -348.186 -109.896)"/><path d="M979.7 688.717 991.955 688.717 991.955 700.972 979.7 700.972Z" fill="#3C3B39" transform="matrix(0.80987 -0.587634 0.588778 0.808297 -393.237 265.163)"/><path d="M970.597 633.59 982.847 633.59 982.847 645.84 970.597 645.84Z" fill="#3C3B39" transform="matrix(0.309532 -0.950889 0.952739 0.308931 -106.093 923.744)"/><path d="M953.78 610.588 966.027 610.588 966.027 622.835 953.78 622.835Z" fill="#3C3B39" transform="matrix(1.00195 0 0 1 -172.772 -446.921)"/><path d="M849.595 754.591 861.845 754.591 861.845 766.841 849.595 766.841Z" fill="#3C3B39" transform="matrix(0.952739 -0.308932 0.309533 0.95089 -366.291 -145.389)"/><path d="M904.851 763.642 917.106 763.642 917.106 775.898 904.851 775.898Z" fill="#3C3B39" transform="matrix(0.588551 -0.80846 0.810033 0.587408 -420.333 606.729)"/><path d="M817.174 699.695 827.383 699.695 827.383 709.905 817.174 709.905Z" fill="#3C3B39" transform="matrix(0.454622 -0.890684 0.892417 0.453739 -352.103 670.198)"/><path d="M843.964 628.006 852.401 628.006 852.401 636.443 843.964 636.443Z" fill="#3C3B39" transform="matrix(1.00195 0 0 1 -172.772 -446.921)"/><path d="M825.498 666.036 833.941 666.036 833.941 674.479 825.498 674.479Z" fill="#3C3B39" transform="matrix(0.810199 -0.587183 0.588326 0.808626 -408.538 168.069)"/><path d="M923.23 615.759 931.669 615.759 931.669 624.198 923.23 624.198Z" fill="#3C3B39" transform="matrix(0.952739 -0.308932 0.309533 0.95089 -319.193 -130.049)"/><path d="M903.332 609.347 911.774 609.347 911.774 617.789 903.332 617.789Z" fill="#3C3B39" transform="matrix(0.809952 -0.587522 0.588665 0.808379 -360.331 203.49)"/><path d="M940.782 711.744 947.722 711.744 947.722 718.685 940.782 718.685Z" fill="#3C3B39" transform="matrix(0.989553 -0.156489 0.156794 0.987632 -273.244 -290.366)"/><path d="M952.927 677.51 959.873 677.51 959.873 684.456 952.927 684.456Z" fill="#3C3B39" transform="matrix(0.707795 -0.706421 0.707795 0.706421 -374.411 428.007)"/><path d="M987.786 641.326 1002.62 641.326 1002.62 656.165 987.786 656.165Z" fill="#3C3B39" transform="matrix(0.454701 -0.890644 0.892377 0.453819 -207.441 793.44)"/><path d="M953.78 737.958 966.027 737.958 966.027 750.205 953.78 750.205Z" fill="#3C3B39" transform="matrix(1.00195 0 0 1 -172.772 -446.921)"/><path d="M810.095 633.567 822.345 633.567 822.345 645.817 810.095 645.817Z" fill="#3C3B39" transform="matrix(0.952572 -0.309442 0.310044 0.950723 -330.925 -162.972)"/><path d="M931.201 594.216 943.45 594.216 943.45 606.465 931.201 606.465Z" fill="#3C3B39" transform="matrix(0.9527 -0.309051 0.309653 0.95085 -312.679 -127.815)"/><path d="M876.625 585.779 888.88 585.779 888.88 598.033 876.625 598.033Z" fill="#3C3B39" transform="matrix(0.588777 -0.808296 0.809868 0.587633 -287.964 510.363)"/><path d="M966.096 699.695 976.305 699.695 976.305 709.904 966.096 709.904Z" fill="#3C3B39" transform="matrix(0.892418 -0.45374 0.454623 0.890686 -387.237 70.4793)"/><path d="M813.719 676.011 823.935 676.011 823.935 686.226 813.719 686.226Z" fill="#3C3B39" transform="matrix(0.708096 -0.706121 0.707495 0.706721 -414.788 330.356)"/><path d="M960.04 687.28 968.483 687.28 968.483 695.723 960.04 695.723Z" fill="#3C3B39" transform="matrix(0.810199 -0.587183 0.588326 0.808626 -395.371 251.121)"/><path d="M861.437 737.033 869.876 737.033 869.876 745.471 861.437 745.471Z" fill="#3C3B39" transform="matrix(0.952739 -0.308932 0.309533 0.95089 -359.773 -143.209)"/><path d="M896.355 734.692 891.456 739.591 896.355 744.49 901.253 739.591Z" fill="#3C3B39" transform="matrix(1.00195 0 0 1 -172.772 -446.921)"/><path d="M858.162 629.129 865.103 629.129 865.103 636.069 858.162 636.069Z" fill="#3C3B39" transform="matrix(0.156696 -0.987647 0.989568 0.156392 -70.5447 937.576)"/><path d="M836.91 695.474 843.853 695.474 843.853 702.417 836.91 702.417Z" fill="#3C3B39" transform="matrix(0.454423 -0.890786 0.892519 0.45354 -336.81 683.373)"/><path d="M826.546 610.588 838.793 610.588 838.793 622.835 826.546 622.835Z" fill="#3C3B39" transform="matrix(1.00195 0 0 1 -172.772 -446.921)"/><path d="M904.883 585.825 917.138 585.825 917.138 598.081 904.883 598.081Z" fill="#3C3B39" transform="matrix(0.809904 -0.587587 0.58873 0.808332 -346.897 201.475)"/><path d="M915.766 750.092 925.976 750.092 925.976 760.302 915.766 760.302Z" fill="#3C3B39" transform="matrix(0.454103 -0.890949 0.892682 0.453221 -342.726 786.13)"/><path d="M827.938 721.384 838.145 721.384 838.145 731.59 827.938 731.59Z" fill="#3C3B39" transform="matrix(0.156598 -0.987662 0.989584 0.156294 -187.421 988.752)"/><path d="M954.633 629.391 964.839 629.391 964.839 639.597 954.633 639.597Z" fill="#3C3B39" transform="matrix(0.156598 -0.987662 0.989584 0.156294 10.6789 1036.2)"/><path d="M940.308 724.35 948.745 724.35 948.745 732.787 940.308 732.787Z" fill="#3C3B39" transform="matrix(1.00195 0 0 1 -172.772 -446.921)"/><path d="M960.042 666.037 968.485 666.037 968.485 674.48 960.042 674.48Z" fill="#3C3B39" transform="matrix(0.588325 -0.808625 0.810198 0.587182 -317.608 608.958)"/><path d="M882.09 743.88 890.532 743.88 890.532 752.322 882.09 752.322Z" fill="#3C3B39" transform="matrix(0.809952 -0.587522 0.588665 0.808379 -443.596 216.661)"/><path d="M874.968 620.932 881.911 620.932 881.911 627.875 874.968 627.875Z" fill="#3C3B39" transform="matrix(0.454382 -0.890807 0.89254 0.4535 -249.418 676.516)"/><path d="M911.555 733.492 918.498 733.492 918.498 740.434 911.555 740.434Z" fill="#3C3B39" transform="matrix(0.4551 -0.89044 0.892173 0.454217 -330.298 769.733)"/><path d="M927.688 724.786 934.628 724.786 934.628 731.726 927.688 731.726Z" fill="#3C3B39" transform="matrix(0.156598 -0.987662 0.989584 0.156294 -106.389 1087.18)"/><path d="M836.953 658.889 843.895 658.889 843.895 665.832 836.953 665.832Z" fill="#3C3B39" transform="matrix(0.892174 -0.454217 0.455101 0.890441 -382.312 7.13941)"/><path d="M949.536 695.509 956.478 695.509 956.478 702.452 949.536 702.452Z" fill="#3C3B39" transform="matrix(0.892174 -0.454217 0.455101 0.890441 -386.649 62.286)"/><path d="M844.949 711.722 851.889 711.722 851.889 718.662 844.949 718.662Z" fill="#3C3B39" transform="matrix(0.156598 -0.987662 0.989584 0.156294 -163.324 994.473)"/><path d="M927.688 629.119 934.628 629.119 934.628 636.059 927.688 636.059Z" fill="#3C3B39" transform="matrix(0.989584 -0.156294 0.156598 0.987663 -260.364 -293.606)"/><path d="M874.97 733.521 881.913 733.521 881.913 740.464 874.97 740.464Z" fill="#3C3B39" transform="matrix(0.892337 -0.453898 0.454781 0.890604 -411.998 32.0795)"/><path d="M828.048 589.227 842.881 589.227 842.881 604.06 828.048 604.06Z" fill="#3C3B39" transform="matrix(0.156403 -0.987693 0.989615 0.156099 -56.8207 881.856)"/><path d="M949.9 756.79 964.733 756.79 964.733 771.623 949.9 771.623Z" fill="#3C3B39" transform="matrix(0.156794 -0.987631 0.989553 0.156489 -119.975 1143.03)"/><path d="M889.725 570.04 904.572 570.04 904.572 584.887 889.725 584.887Z" fill="#3C3B39" transform="matrix(0.707795 -0.706421 0.707795 0.706421 -318.455 355.842)"/><path d="M801.87 660.668 814.125 660.668 814.125 672.922 801.87 672.922Z" fill="#3C3B39" transform="matrix(0.80987 -0.587634 0.588778 0.808297 -410.696 155.24)"/><path d="M979.702 660.533 991.956 660.533 991.956 672.787 979.702 672.787Z" fill="#3C3B39" transform="matrix(0.588777 -0.808296 0.809868 0.587633 -306.086 624.479)"/><path d="M826.546 737.958 838.793 737.958 838.793 750.205 826.546 750.205Z" fill="#3C3B39" transform="matrix(1.00195 0 0 1 -172.772 -446.921)"/><path d="M880.841 777.829 890.775 770.617 883.563 760.683 873.765 767.896Z" fill="#3C3B39" transform="matrix(1.00195 0 0 1 -172.772 -446.921)"/><path d="M937.331 738.652 947.537 738.652 947.537 748.858 937.331 748.858Z" fill="#3C3B39" transform="matrix(0.157102 -0.987582 0.989504 0.156797 -112.628 1110.81)"/><path d="M827.934 629.388 838.141 629.388 838.141 639.594 827.934 639.594Z" fill="#3C3B39" transform="matrix(0.989488 -0.156895 0.1572 0.987567 -262.147 -308.396)"/><path d="M954.628 721.381 964.835 721.381 964.835 731.587 954.628 731.587Z" fill="#3C3B39" transform="matrix(0.989488 -0.156895 0.1572 0.987567 -275.036 -287.394)"/><path d="M915.81 601.192 926.021 601.192 926.021 611.402 915.81 611.402Z" fill="#3C3B39" transform="matrix(0.892439 -0.453699 0.454582 0.890706 -347.871 36.9088)"/><path d="M861.409 615.739 869.847 615.739 869.847 624.178 861.409 624.178Z" fill="#3C3B39" transform="matrix(0.309743 -0.95082 0.95267 0.309142 -164.332 804.191)"/><path d="M923.231 737.033 931.67 737.033 931.67 745.472 923.231 745.472Z" fill="#3C3B39" transform="matrix(0.309532 -0.950889 0.952739 0.308931 -236.969 946.954)"/><path d="M831.55 707.158 839.988 707.158 839.988 715.596 831.55 715.596Z" fill="#3C3B39" transform="matrix(0.309562 -0.950879 0.952729 0.308961 -272.009 839.33)"/><path d="M940.308 628.006 948.745 628.006 948.745 636.443 940.308 636.443Z" fill="#3C3B39" transform="matrix(1.00195 0 0 1 -172.772 -446.921)"/><path d="M893.676 618.395 900.622 618.395 900.622 625.341 893.676 625.341Z" fill="#3C3B39" transform="matrix(0.707294 -0.70692 0.708295 0.705921 -349.721 369.54)"/><path d="M844.975 642.203 851.916 642.203 851.916 649.143 844.975 649.143Z" fill="#3C3B39" transform="matrix(0.989553 -0.156489 0.156794 0.987632 -263.52 -306.206)"/><path d="M834.424 677.51 841.37 677.51 841.37 684.456 834.424 684.456Z" fill="#3C3B39" transform="matrix(0.707795 -0.706421 0.707795 0.706421 -409.143 344.318)"/><path d="M949.488 658.856 956.43 658.856 956.43 665.798 949.488 665.798Z" fill="#3C3B39" transform="matrix(0.454423 -0.890786 0.892519 0.45354 -242.541 763.7)"/><path d="M940.752 642.183 947.692 642.183 947.692 649.123 940.752 649.123Z" fill="#3C3B39" transform="matrix(0.156598 -0.987662 0.989584 0.156294 -13.545 1030.36)"/><path d="M858.149 724.786 865.089 724.786 865.089 731.726 858.149 731.726Z" fill="#3C3B39" transform="matrix(0.989584 -0.156294 0.156598 0.987663 -276.217 -303.303)"/><path d="M911.588 620.931 918.531 620.931 918.531 627.874 911.588 627.874Z" fill="#3C3B39" transform="matrix(0.892541 -0.4535 0.454383 0.890808 -356.735 35.958)"/></g></g></g></g></svg>